<?xml version="1.0" encoding="UTF-8" standalone="no"?>
<!DOCTYPE svg PUBLIC "-//W3C//DTD SVG 1.1//EN" "http://www.w3.org/Graphics/SVG/1.1/DTD/svg11.dtd">
<svg width="100%" height="100%" viewBox="0 0 178 147" version="1.1" xmlns="http://www.w3.org/2000/svg" xmlns:xlink="http://www.w3.org/1999/xlink" xml:space="preserve" xmlns:serif="http://www.serif.com/" style="fill-rule:evenodd;clip-rule:evenodd;stroke-linecap:round;stroke-linejoin:round;stroke-miterlimit:1.5;">
    <g>
        <g transform="matrix(1,0,0,1,-1131.32,-631.417)">
            <path d="M1151.97,661.417C1189.92,666.578 1209.65,684.593 1213.57,713.834C1214.94,724.086 1214.38,735.719 1211.97,748.661C1263.54,741.878 1287.73,714.985 1275.59,661.417" style="fill:none;stroke:rgb(231,29,54);stroke-width:6.67px;"/>
        </g>
        <g transform="matrix(1,0,0,1,-1131.97,-631.417)">
            <g transform="matrix(1,0,0,1,548.969,-236.583)">
                <circle cx="603" cy="898" r="20" style="fill:rgb(1,22,39);"/>
            </g>
            <g transform="matrix(2,0,0,2,3.969,-1058.58)">
                <circle cx="603" cy="898" r="20" style="fill:rgb(1,22,39);stroke:black;stroke-opacity:0;stroke-width:0.5px;stroke-linecap:butt;stroke-miterlimit:2;"/>
            </g>
            <g transform="matrix(1.5,0,0,1.5,374.822,-685.583)">
                <circle cx="603" cy="898" r="20" style="fill:rgb(1,22,39);"/>
            </g>
        </g>
    </g>
</svg>
